<?xml version="1.0" encoding="utf-8"?>
<!-- Generator: Adobe Illustrator 26.0.2, SVG Export Plug-In . SVG Version: 6.00 Build 0)  -->
<svg version="1.1" id="Layer_1" xmlns="http://www.w3.org/2000/svg" xmlns:xlink="http://www.w3.org/1999/xlink" x="0px" y="0px"
	 viewBox="0 0 24 24" style="enable-background:new 0 0 24 24;" xml:space="preserve">
<style type="text/css">
	.st0{fill:#E9D79A;}
</style>
<g>
	<path class="st0" d="M13.5,1.4l2.4,4.9c0.2,0.5,0.7,0.8,1.2,0.9L22.6,8c1.4,0.2,1.9,1.9,0.9,2.8l-3.9,3.8c-0.4,0.4-0.6,0.9-0.5,1.5
		l0.9,5.4c0.2,1.3-1.2,2.4-2.4,1.7l-4.9-2.6c-0.5-0.3-1.1-0.3-1.5,0l-4.9,2.6c-1.2,0.6-2.6-0.4-2.4-1.7l0.9-5.4
		c0.1-0.5-0.1-1.1-0.5-1.5l-3.9-3.8c-1-1-0.4-2.6,0.9-2.8l5.4-0.8c0.5-0.1,1-0.4,1.2-0.9l2.4-4.9C11.1,0.2,12.9,0.2,13.5,1.4z"/>
</g>
</svg>
